# xmcd
#
# Track frame offsets: 
#        150
#        10565
#        23535
#        37824
#        53094
#        63755
#        105335
#        115794
#        143791
#        154315
#        180944
#        194834
#
# Disc length: 2776 seconds
#
# Revision: 0
# Processed by: cddbd v1.5.1PL0 Copyright (c) Steve Scherf et al.
# Submitted via: ExactAudioCopy v0.95a5
#
DISCID=880ad60c
DTITLE=Various Artist - Soul Music (Reis e Rainhas)
DYEAR=1900
DGENRE=Soul
TTITLE0=Etta James - Tell Mama
TTITLE1=James Brown - Please, Please, Please
TTITLE2=Ann Sexton - You Can't Win
TTITLE3=Solomon Burke - Sweeter Than Sweetness
TTITLE4=Etta James - Fire
TTITLE5=James Brown - It's a Man's, Man's, Man's World
TTITLE6=Ann Sexton - You're Losing Me
TTITLE7=Solomon Burke - Let The Love Flow
TTITLE8=Etta James - My Mother In Law
TTITLE9=James Brown - Georgia On My Mind
TTITLE10=Ann Sexton - You're Gonna Miss Me
TTITLE11=Solomon Burke - Lucky
EXTD=
EXTT0=
EXTT1=
EXTT2=
EXTT3=
EXTT4=
EXTT5=
EXTT6=
EXTT7=
EXTT8=
EXTT9=
EXTT10=
EXTT11=
PLAYORDER=
